<svg width="100" height="100" viewBox="0 0 100 100" fill="none" xmlns="http://www.w3.org/2000/svg">
<g clip-path="url(#clip0_811_5736)">
<path d="M26.5847 74.4301L26.5885 74.4338C39.8918 87.4541 61.2142 87.2822 74.3061 74.0494C87.3974 60.816 87.3401 39.493 74.1775 26.3305C61.015 13.1679 39.692 13.1106 26.4586 26.2019L26.8102 26.5573L26.4586 26.2019C13.2258 39.2938 13.0539 60.6162 26.0742 73.9195L26.0742 73.9195L26.078 73.9233L26.5847 74.4301ZM66.9723 61.7846L61.7868 66.9701L50.3553 55.5385L50.0017 55.185L49.6482 55.5385L38.2166 66.9701L33.0312 61.7846L44.4627 50.3531L44.8163 49.9995L44.4627 49.646L33.0312 38.2144L38.2166 33.0289L49.6482 44.4605L50.0017 44.8141L50.3553 44.4605L61.7868 33.029L66.9723 38.2144L55.5407 49.646L55.1872 49.9995L55.5407 50.3531L66.9723 61.7846ZM79.1106 79.1091C63.034 95.1853 36.969 95.1852 20.8925 79.1087C4.81592 63.0322 4.81592 36.9669 20.8925 20.8903C36.969 4.81383 63.034 4.8137 79.1106 20.8899C95.1624 36.977 95.1624 63.022 79.1106 79.1091Z" fill="#FF0000" stroke="#FF0000"/>
</g>
<defs>
<clipPath id="clip0_811_5736">
<rect width="100" height="100" fill="white" transform="translate(0 100) rotate(-90)"/>
</clipPath>
</defs>
</svg>
