<svg width="91" height="66" viewBox="0 0 91 66" fill="none" xmlns="http://www.w3.org/2000/svg">
<rect x="2" y="11" width="87" height="52.7368" rx="3" fill="white" stroke="black" stroke-width="4"/>
<path d="M64.3415 37.2632C64.3415 47.6864 56.2587 56.0263 46.4207 56.0263C36.5828 56.0263 28.5 47.6864 28.5 37.2632C28.5 26.8399 36.5828 18.5 46.4207 18.5C56.2587 18.5 64.3415 26.8399 64.3415 37.2632Z" fill="white" stroke="black" stroke-width="3"/>
<circle cx="80.25" cy="19.25" r="3.25" fill="white" stroke="black" stroke-width="2"/>
<path fill-rule="evenodd" clip-rule="evenodd" d="M34.0876 0.578947C35.2948 0.801039 35.9651 1.63519 35.7523 2.89474L34.4057 10.1899C34.1928 11.4495 33.0416 12.2905 31.8345 12.0684C30.6273 11.8463 29.8212 10.6452 30.0341 9.38566L31.5273 1.87581C31.7401 0.616263 32.8804 0.356856 34.0876 0.578947Z" fill="black"/>
<path fill-rule="evenodd" clip-rule="evenodd" d="M59.3304 12.0685C58.1232 12.2906 56.9721 11.4496 56.7592 10.1901L55.173 2.89474C54.9601 1.63519 55.0756 0.801039 56.2827 0.578947C57.4899 0.356856 58.9682 0.564927 59.1811 1.82447L61.1308 9.38579C61.3436 10.6453 60.5376 11.8464 59.3304 12.0685Z" fill="black"/>
<path fill-rule="evenodd" clip-rule="evenodd" d="M59.2311 2.31579C59.2311 3.59476 58.2374 4.63158 57.0116 4.63158H33.7068C32.481 4.63158 31.4872 3.59476 31.4872 2.31579C31.4872 1.03681 32.481 0 33.7068 0H57.0116C58.2374 0 59.2311 1.03681 59.2311 2.31579Z" fill="black"/>
</svg>
