<svg width="100" height="100" viewBox="0 0 100 100" fill="none" xmlns="http://www.w3.org/2000/svg">
<path d="M49.9997 8.3335C26.9997 8.3335 8.33301 27.0002 8.33301 50.0002C8.33301 73.0002 26.9997 91.6668 49.9997 91.6668C72.9997 91.6668 91.6663 73.0002 91.6663 50.0002C91.6663 27.0002 72.9997 8.3335 49.9997 8.3335ZM49.9997 83.3335C31.6247 83.3335 16.6663 68.3752 16.6663 50.0002C16.6663 31.6252 31.6247 16.6668 49.9997 16.6668C68.3747 16.6668 83.333 31.6252 83.333 50.0002C83.333 68.3752 68.3747 83.3335 49.9997 83.3335ZM69.1247 31.5835L41.6663 59.0418L30.8747 48.2918L24.9997 54.1668L41.6663 70.8335L74.9997 37.5002L69.1247 31.5835Z" fill="#32CD32"/>
</svg>
