<svg width="42" height="42" viewBox="0 0 42 42" fill="none" xmlns="http://www.w3.org/2000/svg">
<path d="M21 41.8333C9.49409 41.8333 0.166687 32.5059 0.166687 21C0.166687 9.49403 9.49409 0.166626 21 0.166626C32.506 0.166626 41.8334 9.49403 41.8334 21C41.8207 32.5007 32.5007 41.8207 21 41.8333ZM4.33335 21.3583C4.43193 30.5275 11.919 37.8948 21.0886 37.8458C30.2583 37.7963 37.6657 30.3489 37.6657 21.1791C37.6657 12.0093 30.2583 4.56199 21.0886 4.51245C11.919 4.46341 4.43193 11.8307 4.33335 21V21.3583ZM23.0834 31.4166H18.9167V23.0833H10.5834V18.9166H18.9167V10.5833H23.0834V18.9166H31.4167V23.0833H23.0834V31.4166Z" fill="#DD6A5B"/>
</svg>
