<svg width="45" height="45" viewBox="0 0 45 45" fill="none" xmlns="http://www.w3.org/2000/svg">
<rect x="1.5" y="1.5" width="42" height="42" rx="1.5" stroke="black" stroke-width="3"/>
<path d="M9 13H13V16H9L9 13ZM15 16V13H18V18H13C14.1046 18 15 17.1046 15 16Z" fill="black" stroke="black" stroke-width="2"/>
<path d="M9 29H13V32H9L9 29ZM15 32V29H18V34H13C14.1046 34 15 33.1046 15 32Z" fill="black" stroke="black" stroke-width="2"/>
<path d="M27 13H31V16H27L27 13ZM33 16V13H36V18H31C32.1046 18 33 17.1046 33 16Z" fill="black" stroke="black" stroke-width="2"/>
<path d="M27 29H31V32H27L27 29ZM33 32V29H36V34H31C32.1046 34 33 33.1046 33 32Z" fill="black" stroke="black" stroke-width="2"/>
</svg>
