<svg width="42" height="42" viewBox="0 0 42 42" fill="none" xmlns="http://www.w3.org/2000/svg">
<path d="M21.0001 41.8332C9.49415 41.8332 0.166748 32.5058 0.166748 20.9998C0.166748 9.4939 9.49415 0.166504 21.0001 0.166504C32.506 0.166504 41.8334 9.4939 41.8334 20.9998C41.8208 32.5005 32.5008 41.8205 21.0001 41.8332ZM4.33341 21.3582C4.43199 30.5274 11.9191 37.8947 21.0887 37.8457C30.2584 37.7961 37.6658 30.3488 37.6658 21.179C37.6658 12.0092 30.2584 4.56187 21.0887 4.51233C11.9191 4.46329 4.43199 11.8306 4.33341 20.9998V21.3582ZM23.0834 31.4165H18.9167V23.0832H10.5834V18.9165H18.9167V10.5832H23.0834V18.9165H31.4167V23.0832H23.0834V31.4165Z" fill="black"/>
</svg>
