<svg width="50" height="50" viewBox="0 0 50 50" fill="none" xmlns="http://www.w3.org/2000/svg">
<path d="M23.0601 25.7293C24.6642 22.8335 27.7476 21.1252 29.5392 18.5627C31.4351 15.8752 30.3726 10.8543 24.9976 10.8543C21.4767 10.8543 19.7476 13.521 19.0184 15.7293L13.6226 13.4585C15.1017 9.021 19.1226 5.2085 24.9767 5.2085C29.8726 5.2085 33.2267 7.43766 34.9351 10.2293C36.3934 12.6252 37.2476 17.1043 34.9976 20.4377C32.4976 24.1252 30.1017 25.2502 28.8101 27.6252C28.2892 28.5835 28.0809 29.2085 28.0809 32.2918H22.0601C22.0392 30.6668 21.7892 28.021 23.0601 25.7293ZM29.1642 40.6252C29.1642 42.9168 27.2892 44.7918 24.9976 44.7918C22.7059 44.7918 20.8309 42.9168 20.8309 40.6252C20.8309 38.3335 22.7059 36.4585 24.9976 36.4585C27.2892 36.4585 29.1642 38.3335 29.1642 40.6252Z" fill="#FF0000"/>
</svg>
