<svg width="50" height="50" viewBox="0 0 50 50" fill="none" xmlns="http://www.w3.org/2000/svg">
<path d="M25.0003 4.1665C13.5003 4.1665 4.16699 13.4998 4.16699 24.9998C4.16699 36.4998 13.5003 45.8332 25.0003 45.8332C36.5003 45.8332 45.8337 36.4998 45.8337 24.9998C45.8337 13.4998 36.5003 4.1665 25.0003 4.1665ZM25.0003 41.6665C15.8128 41.6665 8.33366 34.1873 8.33366 24.9998C8.33366 15.8123 15.8128 8.33317 25.0003 8.33317C34.1878 8.33317 41.667 15.8123 41.667 24.9998C41.667 34.1873 34.1878 41.6665 25.0003 41.6665ZM13.542 18.7498L20.8337 11.4582L28.1253 18.7498H22.917V27.0832H18.7503V18.7498H13.542ZM36.4587 31.2498L29.167 38.5415L21.8753 31.2498H27.0837V22.9165H31.2503V31.2498H36.4587Z" fill="black"/>
</svg>
