<svg width="42" height="42" viewBox="0 0 42 42" fill="none" xmlns="http://www.w3.org/2000/svg">
<path d="M42 21C42 32.598 32.598 42 21 42C9.40202 42 0 32.598 0 21C0 9.40202 9.40202 0 21 0C32.598 0 42 9.40202 42 21Z" fill="white"/>
<path fill-rule="evenodd" clip-rule="evenodd" d="M21 38C30.3888 38 38 30.3888 38 21C38 11.6112 30.3888 4 21 4C11.6112 4 4 11.6112 4 21C4 30.3888 11.6112 38 21 38ZM21 42C32.598 42 42 32.598 42 21C42 9.40202 32.598 0 21 0C9.40202 0 0 9.40202 0 21C0 32.598 9.40202 42 21 42Z" fill="#DD6A5B"/>
<path fill-rule="evenodd" clip-rule="evenodd" d="M19.5 13.3279L16.476 16.1011L14.4484 13.89L20.9862 7.89453L21.018 7.92925L21.0335 7.91293L27.3399 13.9085L25.2728 16.0827L22.5 13.4465V25.4706H19.5V13.3279ZM11 25.4706H14V28.3824H28V25.4706H31V31.3824H11V25.4706Z" fill="#DD6A5B"/>
</svg>
