<svg width="44" height="34" viewBox="0 0 44 34" fill="none" xmlns="http://www.w3.org/2000/svg">
<path fill-rule="evenodd" clip-rule="evenodd" d="M33.1785 30C33.7211 31.2743 34 32.6308 34 34L10 34C10 32.6308 10.2789 31.2743 10.8215 30C10.8514 29.9299 10.882 29.8601 10.9134 29.7905C11.5165 28.4559 12.4004 27.2433 13.5147 26.2218C14.629 25.2004 15.9519 24.3901 17.4078 23.8373C18.8637 23.2845 20.4241 23 22 23C23.5759 23 25.1363 23.2845 26.5922 23.8373C28.0481 24.3901 29.371 25.2004 30.4853 26.2218C31.5996 27.2433 32.4835 28.4559 33.0866 29.7905C33.118 29.8601 33.1486 29.9299 33.1785 30ZM14.5 31C14.7319 30.7094 15.9325 29.4318 16.2176 29.1704C16.9469 28.502 17.8311 27.9552 18.8277 27.5768C19.8245 27.1983 20.9034 27 22 27C23.0966 27 24.1755 27.1983 25.1723 27.5768C26.1689 27.9552 27.0531 28.502 27.7824 29.1704C28.0675 29.4318 29.1978 30.7094 29.4297 31H14.5Z" fill="black"/>
<path fill-rule="evenodd" clip-rule="evenodd" d="M21.5 20.5C23.433 20.5 25.5 18.433 25.5 16.5C25.5 14.567 23.433 12.5 21.5 12.5C19.567 12.5 17.5 14.567 17.5 16.5C17.5 18.433 19.567 20.5 21.5 20.5ZM21.5 24C25.6421 24 29 20.6421 29 16.5C29 12.3579 25.6421 9 21.5 9C17.3579 9 14 12.3579 14 16.5C14 20.6421 17.3579 24 21.5 24Z" fill="black"/>
<rect x="1.5" y="4.5" width="41" height="28" rx="1.5" stroke="black" stroke-width="3"/>
<mask id="path-4-inside-1_562_560" fill="white">
<rect width="10" height="6" rx="1"/>
</mask>
<rect width="10" height="6" rx="1" fill="black" stroke="black" stroke-width="4" mask="url(#path-4-inside-1_562_560)"/>
</svg>
