<svg width="47" height="36" viewBox="0 0 47 36" fill="none" xmlns="http://www.w3.org/2000/svg">
<path d="M27.5 11.5H36.5M27.5 17.5H36.5M27.5 23.5H36.5M5 34H42C43.6569 34 45 32.6569 45 31V5C45 3.34315 43.6569 2 42 2H5C3.34315 2 2 3.34315 2 5V31C2 32.6569 3.34314 34 5 34Z" stroke="black" stroke-width="3" stroke-linecap="round"/>
<circle cx="14.5" cy="13.5" r="4" stroke="black" stroke-width="3"/>
<path d="M21.5 24.5C21.5 25.1161 21.3427 25.5283 21.1198 25.8341C20.8858 26.1551 20.5043 26.4603 19.9067 26.723C18.6665 27.2683 16.8032 27.5 14.5 27.5C12.1968 27.5 10.3335 27.2683 9.0933 26.723C8.49569 26.4603 8.11416 26.1551 7.88017 25.8341C7.65731 25.5283 7.5 25.1161 7.5 24.5C7.5 23.2706 8.14793 22.0534 9.40077 21.0953C10.655 20.1362 12.4529 19.5 14.5 19.5C16.5471 19.5 18.345 20.1362 19.5992 21.0953C20.8521 22.0534 21.5 23.2706 21.5 24.5Z" stroke="black" stroke-width="3"/>
</svg>
